<?xml version="1.0" encoding="iso-8859-1"?>
<!-- Uploaded to: SVG Repo, www.svgrepo.com, Generator: SVG Repo Mixer Tools -->
<svg fill="#000000" height="800px" width="800px" version="1.1" id="Layer_1" xmlns="http://www.w3.org/2000/svg" xmlns:xlink="http://www.w3.org/1999/xlink" 
	 viewBox="0 0 511.999 511.999" xml:space="preserve">
<g>
	<g>
		<g>
			<path d="M454.513,74.938h-68.399V18.732C386.114,8.387,377.727,0,367.382,0H144.617c-10.345,0-18.732,8.387-18.732,18.732v56.206
				H57.486c-10.345,0-18.732,8.387-18.732,18.732v74.938c0,10.345,8.387,18.732,18.732,18.732h34.746
				c17.118,192.079,8.048,90.542,27.392,307.591c0.862,9.663,8.957,17.068,18.658,17.068h235.436
				c9.702,0,17.796-7.406,18.657-17.068c18.423-206.706,11.416-128.341,27.391-307.591h34.747c10.345,0,18.732-8.387,18.732-18.732
				V93.67C473.245,83.325,464.858,74.938,454.513,74.938z M163.349,37.463h185.3v37.475h-185.3V37.463z M356.581,474.537H155.418
				l-4.898-55h210.963L356.581,474.537z M364.818,382.073H147.184c-5.874-65.962-3.801-42.676-9.104-102.271h235.836
				C373.005,290.05,365.963,369.211,364.818,382.073z M377.252,242.338H134.742l-4.898-54.999h252.31L377.252,242.338z
				 M435.781,149.876c-4.064,0-331.963,0-359.564,0v-37.475c17.86,0,348.35,0,359.564,0V149.876z"/>
			<circle cx="255.999" cy="330.939" r="28.909"/>
		</g>
	</g>
</g>
</svg>